<svg width="46" height="46" viewBox="0 0 46 46" fill="none" xmlns="http://www.w3.org/2000/svg">
<path d="M38.625 2.39355H7.375C4.61358 2.39355 2.375 4.63213 2.375 7.39355V38.6436C2.375 41.405 4.61358 43.6436 7.375 43.6436H38.625C41.3864 43.6436 43.625 41.405 43.625 38.6436V7.39355C43.625 4.63213 41.3864 2.39355 38.625 2.39355Z" fill="#8CCE58" stroke="black" stroke-width="3.75"/>
<path d="M13.625 19.8936V33.6436V19.8936Z" fill="#8CCE58"/>
<path d="M13.625 19.8936V33.6436" stroke="black" stroke-width="3.75" stroke-linecap="round" stroke-linejoin="round"/>
<path d="M32.375 33.6436V25.5186C32.375 22.412 29.8566 19.8936 26.75 19.8936C23.6434 19.8936 21.125 22.412 21.125 25.5186V33.6436" fill="#8CCE58"/>
<path d="M32.375 33.6436V25.5186C32.375 22.412 29.8566 19.8936 26.75 19.8936C23.6434 19.8936 21.125 22.412 21.125 25.5186V33.6436" stroke="black" stroke-width="3.75" stroke-linecap="round"/>
</svg>
