<svg width="46" height="46" viewBox="0 0 46 46" fill="none" xmlns="http://www.w3.org/2000/svg">
<path d="M38.25 2H7C4.23858 2 2 4.23858 2 7V38.25C2 41.0114 4.23858 43.25 7 43.25H38.25C41.0114 43.25 43.25 41.0114 43.25 38.25V7C43.25 4.23858 41.0114 2 38.25 2Z" stroke="black" stroke-width="3.75"/>
<path d="M13.25 19.5V33.25" stroke="black" stroke-width="3.75" stroke-linecap="round" stroke-linejoin="round"/>
<path d="M13.25 15.125C14.6307 15.125 15.75 14.0057 15.75 12.625C15.75 11.2443 14.6307 10.125 13.25 10.125C11.8693 10.125 10.75 11.2443 10.75 12.625C10.75 14.0057 11.8693 15.125 13.25 15.125Z" fill="black"/>
<path d="M32 33.25V25.125C32 22.0184 29.4816 19.5 26.375 19.5C23.2684 19.5 20.75 22.0184 20.75 25.125V33.25" stroke="black" stroke-width="3.75" stroke-linecap="round"/>
</svg>
